# Blender v2.73 (sub 0) OBJ File: 'RoundPortal.blend'
# www.blender.org
g RoundCollider
v 0.000000 0.000000 -0.500000
v 0.000000 -0.000000 0.500000
v 0.000000 2.500000 -0.500000
v 0.000000 2.500000 0.500000
v 0.487726 2.451963 -0.500000
v 0.487726 2.451963 0.500000
v 0.956709 2.309699 -0.500000
v 0.956709 2.309699 0.500000
v 1.388926 2.078674 -0.500000
v 1.388926 2.078674 0.500000
v 1.767767 1.767767 -0.500000
v 1.767767 1.767767 0.500000
v 2.078674 1.388925 -0.500000
v 2.078674 1.388925 0.500000
v 2.309699 0.956709 -0.500000
v 2.309699 0.956709 0.500000
v 2.451963 0.487726 -0.500000
v 2.451963 0.487726 0.500000
v 2.500000 0.000000 -0.500000
v 2.500000 0.000000 0.500000
v 2.451963 -0.487725 -0.500000
v 2.451963 -0.487726 0.500000
v 2.309699 -0.956708 -0.500000
v 2.309699 -0.956708 0.500000
v 2.078674 -1.388925 -0.500000
v 2.078674 -1.388925 0.500000
v 1.767767 -1.767767 -0.500000
v 1.767767 -1.767767 0.500000
v 1.388925 -2.078674 -0.500000
v 1.388925 -2.078674 0.500000
v 0.956708 -2.309699 -0.500000
v 0.956708 -2.309699 0.500000
v 0.487725 -2.451963 -0.500000
v 0.487725 -2.451963 0.500000
v -0.000001 -2.500000 -0.500000
v -0.000001 -2.500000 0.500000
v -0.487727 -2.451963 -0.500000
v -0.487727 -2.451963 0.500000
v -0.956710 -2.309698 -0.500000
v -0.956710 -2.309698 0.500000
v -1.388927 -2.078673 -0.500000
v -1.388927 -2.078673 0.500000
v -1.767768 -1.767766 -0.500000
v -1.767768 -1.767766 0.500000
v -2.078675 -1.388924 -0.500000
v -2.078675 -1.388924 0.500000
v -2.309700 -0.956707 -0.500000
v -2.309700 -0.956707 0.500000
v -2.451964 -0.487724 -0.500000
v -2.451964 -0.487724 0.500000
v -2.500000 0.000002 -0.500000
v -2.500000 0.000002 0.500000
v -2.451963 0.487728 -0.500000
v -2.451963 0.487728 0.500000
v -2.309698 0.956711 -0.500000
v -2.309698 0.956711 0.500000
v -2.078672 1.388928 -0.500000
v -2.078672 1.388928 0.500000
v -1.767765 1.767769 -0.500000
v -1.767765 1.767769 0.500000
v -1.388923 2.078676 -0.500000
v -1.388923 2.078676 0.500000
v -0.956705 2.309700 -0.500000
v -0.956705 2.309700 0.500000
v -0.487722 2.451964 -0.500000
v -0.487722 2.451964 0.500000
vn 0.000000 0.000000 -1.000000
vn -0.000000 -0.000000 1.000000
vn 0.098000 0.995200 0.000000
vn 0.290300 0.956900 0.000000
vn 0.471400 0.881900 0.000000
vn 0.634400 0.773000 0.000000
vn 0.773000 0.634400 0.000000
vn 0.881900 0.471400 0.000000
vn 0.956900 0.290300 0.000000
vn 0.995200 0.098000 0.000000
vn 0.995200 -0.098000 -0.000000
vn 0.956900 -0.290300 0.000000
vn 0.881900 -0.471400 0.000000
vn 0.773000 -0.634400 0.000000
vn 0.634400 -0.773000 0.000000
vn 0.471400 -0.881900 0.000000
vn 0.290300 -0.956900 0.000000
vn 0.098000 -0.995200 0.000000
vn -0.098000 -0.995200 0.000000
vn -0.290300 -0.956900 0.000000
vn -0.471400 -0.881900 0.000000
vn -0.634400 -0.773000 0.000000
vn -0.773000 -0.634400 0.000000
vn -0.881900 -0.471400 0.000000
vn -0.956900 -0.290300 0.000000
vn -0.995200 -0.098000 -0.000000
vn -0.995200 0.098000 0.000000
vn -0.956900 0.290300 0.000000
vn -0.881900 0.471400 0.000000
vn -0.773000 0.634400 0.000000
vn -0.634400 0.773000 0.000000
vn -0.471400 0.881900 0.000000
vn -0.290300 0.956900 0.000000
vn -0.098000 0.995200 0.000000
s off
f 1//1 3//1 5//1
f 2//2 6//2 4//2
f 4//3 6//3 5//3
f 1//1 5//1 7//1
f 2//2 8//2 6//2
f 6//4 8//4 7//4
f 1//1 7//1 9//1
f 2//2 10//2 8//2
f 8//5 10//5 9//5
f 1//1 9//1 11//1
f 2//2 12//2 10//2
f 10//6 12//6 11//6
f 1//1 11//1 13//1
f 2//2 14//2 12//2
f 12//7 14//7 13//7
f 1//1 13//1 15//1
f 2//2 16//2 14//2
f 14//8 16//8 15//8
f 1//1 15//1 17//1
f 2//2 18//2 16//2
f 16//9 18//9 17//9
f 1//1 17//1 19//1
f 2//2 20//2 18//2
f 18//10 20//10 19//10
f 1//1 19//1 21//1
f 2//2 22//2 20//2
f 20//11 22//11 21//11
f 1//1 21//1 23//1
f 2//2 24//2 22//2
f 22//12 24//12 23//12
f 1//1 23//1 25//1
f 2//2 26//2 24//2
f 24//13 26//13 25//13
f 1//1 25//1 27//1
f 2//2 28//2 26//2
f 26//14 28//14 27//14
f 1//1 27//1 29//1
f 2//2 30//2 28//2
f 28//15 30//15 29//15
f 1//1 29//1 31//1
f 2//2 32//2 30//2
f 30//16 32//16 31//16
f 1//1 31//1 33//1
f 2//2 34//2 32//2
f 32//17 34//17 33//17
f 1//1 33//1 35//1
f 2//2 36//2 34//2
f 34//18 36//18 35//18
f 1//1 35//1 37//1
f 2//2 38//2 36//2
f 36//19 38//19 37//19
f 1//1 37//1 39//1
f 2//2 40//2 38//2
f 38//20 40//20 39//20
f 1//1 39//1 41//1
f 2//2 42//2 40//2
f 40//21 42//21 41//21
f 1//1 41//1 43//1
f 2//2 44//2 42//2
f 42//22 44//22 43//22
f 1//1 43//1 45//1
f 2//2 46//2 44//2
f 44//23 46//23 45//23
f 1//1 45//1 47//1
f 2//2 48//2 46//2
f 46//24 48//24 47//24
f 1//1 47//1 49//1
f 2//2 50//2 48//2
f 47//25 48//25 50//25
f 1//1 49//1 51//1
f 2//2 52//2 50//2
f 50//26 52//26 51//26
f 1//1 51//1 53//1
f 2//2 54//2 52//2
f 52//27 54//27 53//27
f 1//1 53//1 55//1
f 2//2 56//2 54//2
f 54//28 56//28 55//28
f 1//1 55//1 57//1
f 2//2 58//2 56//2
f 56//29 58//29 57//29
f 1//1 57//1 59//1
f 2//2 60//2 58//2
f 58//30 60//30 59//30
f 1//1 59//1 61//1
f 2//2 62//2 60//2
f 60//31 62//31 61//31
f 1//1 61//1 63//1
f 2//2 64//2 62//2
f 62//32 64//32 63//32
f 1//1 63//1 65//1
f 2//2 66//2 64//2
f 64//33 66//33 65//33
f 1//1 65//1 3//1
f 2//2 4//2 66//2
f 66//34 4//34 3//34
f 3//3 4//3 5//3
f 5//4 6//4 7//4
f 7//5 8//5 9//5
f 9//6 10//6 11//6
f 11//7 12//7 13//7
f 13//8 14//8 15//8
f 15//9 16//9 17//9
f 17//10 18//10 19//10
f 19//11 20//11 21//11
f 21//12 22//12 23//12
f 23//13 24//13 25//13
f 25//14 26//14 27//14
f 27//15 28//15 29//15
f 29//16 30//16 31//16
f 31//17 32//17 33//17
f 33//18 34//18 35//18
f 35//19 36//19 37//19
f 37//20 38//20 39//20
f 39//21 40//21 41//21
f 41//22 42//22 43//22
f 43//23 44//23 45//23
f 45//24 46//24 47//24
f 49//25 47//25 50//25
f 49//26 50//26 51//26
f 51//27 52//27 53//27
f 53//28 54//28 55//28
f 55//29 56//29 57//29
f 57//30 58//30 59//30
f 59//31 60//31 61//31
f 61//32 62//32 63//32
f 63//33 64//33 65//33
f 65//34 66//34 3//34
g RoundPortal
v -0.000000 -0.000001 0.000000
v 0.956708 2.309698 0.000000
v 1.388925 2.078673 0.000000
v 1.767767 1.767766 0.000001
v 2.078674 1.388925 0.000001
v 2.309698 0.956708 0.000001
v 2.500000 -0.000000 0.000000
v 2.451963 -0.487726 0.000000
v 1.767767 -1.767768 0.000000
v 0.487725 -2.451964 -0.000000
v -0.956710 -2.309699 -0.000000
v -1.388927 -2.078674 -0.000001
v -2.078676 -1.388925 -0.000001
v -2.451963 0.487728 -0.000000
v -2.078673 1.388927 -0.000000
v -1.767765 1.767768 -0.000000
v -1.388923 2.078675 -0.000000
v -0.487722 2.451963 0.000000
v -0.000000 -0.000001 0.500000
v -0.000000 2.499999 0.500000
v 2.309698 0.956708 0.500000
v 2.500000 -0.000000 0.500000
v 2.451963 -0.487726 0.500000
v 2.078674 -1.388926 0.500000
v 0.956708 -2.309700 0.500000
v -0.956710 -2.309699 0.500000
v -1.767768 -1.767767 0.499999
v -2.451964 -0.487724 0.499999
v -2.500000 0.000002 0.500000
v -2.451963 0.487728 0.500000
v -1.767765 1.767768 0.500000
v -1.388923 2.078675 0.500000
v -0.956706 2.309700 0.500000
v -0.487722 2.451963 0.500000
v -0.000000 2.499999 0.000000
v 0.487726 2.451962 0.000000
v 2.451963 0.487725 0.000001
v 2.309698 -0.956709 0.000000
v 2.078674 -1.388926 0.000000
v 1.388925 -2.078675 -0.000000
v 0.956708 -2.309700 -0.000000
v -0.000001 -2.500000 -0.000000
v -0.487727 -2.451964 -0.000000
v -1.767768 -1.767767 -0.000001
v -2.309700 -0.956707 -0.000001
v -2.451964 -0.487724 -0.000001
v -2.500000 0.000002 -0.000000
v -2.309698 0.956711 -0.000000
v -0.956706 2.309700 0.000000
v 0.487726 2.451962 0.500000
v 0.956708 2.309698 0.500000
v 1.388925 2.078673 0.500000
v 1.767767 1.767766 0.500000
v 2.078674 1.388925 0.500001
v 2.451963 0.487725 0.500000
v 2.309698 -0.956709 0.500000
v 1.767767 -1.767768 0.500000
v 1.388925 -2.078675 0.500000
v 0.487725 -2.451964 0.500000
v -0.000001 -2.500000 0.500000
v -0.487727 -2.451964 0.500000
v -1.388927 -2.078674 0.499999
v -2.078676 -1.388925 0.499999
v -2.309700 -0.956707 0.499999
v -2.309698 0.956711 0.500000
v -2.078673 1.388927 0.500000
v 2.057880 -1.378937 0.000000
v 2.057880 -1.378937 0.500000
v 2.287355 -0.950969 0.000000
v 2.287355 -0.950969 0.500000
v 2.428929 -0.486455 0.000000
v 2.428929 -0.486455 0.500000
v 2.477161 -0.003248 0.000000
v 2.477161 -0.003248 0.500000
v 2.430196 0.480085 0.000000
v 2.430196 0.480085 0.500000
v 2.289840 0.944968 0.500000
v 2.289840 0.944968 0.000000
v 2.061488 1.373536 0.500001
v 2.061488 1.373536 0.000001
v 1.753913 1.749321 0.000001
v 1.753913 1.749321 0.500000
v 1.378937 2.057879 0.000000
v 1.378937 2.057879 0.500000
v 0.950968 2.287355 0.500000
v 0.950968 2.287355 0.000000
v 0.486455 2.428928 0.000000
v 0.486455 2.428928 0.500000
v 0.003247 2.477160 0.000000
v 0.003247 2.477160 0.500000
v -0.480085 2.430195 0.000000
v -0.480085 2.430195 0.500000
v -0.944968 2.289840 0.000000
v -0.944968 2.289840 0.500000
v -1.373536 2.061487 -0.000000
v -1.373536 2.061487 0.500000
v -1.749320 1.753912 -0.000000
v -1.749320 1.753912 0.500000
v -2.057879 1.378936 -0.000000
v -2.057879 1.378936 0.500000
v -2.287355 0.950968 -0.000000
v -2.287355 0.950968 0.500000
v -2.428928 0.486455 -0.000000
v -2.428928 0.486455 0.500000
v -2.477160 0.003247 -0.000001
v -2.477160 0.003247 0.499999
v -2.430195 -0.480085 -0.000001
v -2.430195 -0.480085 0.499999
v -2.289840 -0.944968 -0.000001
v -2.289840 -0.944968 0.499999
v -2.061487 -1.373536 -0.000001
v -2.061487 -1.373536 0.499999
v -1.753912 -1.749320 -0.000001
v -1.753912 -1.749320 0.499999
v -1.378936 -2.057879 -0.000001
v -1.378936 -2.057879 0.499999
v -0.950968 -2.287354 -0.000000
v -0.950968 -2.287354 0.500000
v -0.486455 -2.428928 -0.000000
v -0.486455 -2.428928 0.500000
v -0.003247 -2.477159 -0.000000
v -0.003247 -2.477159 0.500000
v 0.480085 -2.430195 -0.000000
v 0.480085 -2.430195 0.500000
v 0.944968 -2.289840 -0.000000
v 0.944968 -2.289840 0.500000
v 1.373536 -2.061487 -0.000000
v 1.373536 -2.061487 0.500000
v 1.749320 -1.753912 0.000000
v 1.749320 -1.753912 0.500000
vn 0.000000 0.000000 -1.000000
vn -0.881300 0.472600 0.000000
vn 0.096700 -0.995300 -0.000000
vn 0.772200 -0.635400 0.000000
vn 0.773800 0.633400 0.000000
vn -0.956600 0.291500 0.000000
vn -0.995100 0.099300 0.000000
vn -0.995300 -0.096700 -0.000000
vn -0.957300 -0.289000 0.000000
vn -0.882500 -0.470200 0.000000
vn -0.773800 -0.633400 0.000000
vn -0.635400 -0.772200 0.000000
vn -0.472600 -0.881300 0.000000
vn -0.291500 -0.956600 0.000000
vn -0.099300 -0.995100 0.000000
vn 0.289000 -0.957300 0.000000
vn 0.470200 -0.882500 0.000000
vn 0.633400 -0.773800 0.000000
vn 0.881300 -0.472600 0.000000
vn 0.956600 -0.291500 0.000000
vn 0.995100 -0.099300 0.000000
vn 0.995300 0.096700 0.000000
vn 0.957300 0.289000 0.000000
vn 0.882500 0.470200 0.000000
vn 0.635400 0.772200 0.000000
vn 0.472600 0.881300 0.000000
vn 0.291500 0.956600 0.000000
vn 0.099300 0.995100 0.000000
vn -0.096700 0.995300 0.000000
vn -0.289000 0.957300 0.000000
vn -0.470200 0.882500 0.000000
vn -0.633400 0.773800 0.000000
vn -0.772200 0.635400 0.000000
s off
f 67//35 68//35 69//35
f 67//35 69//35 70//35
f 67//35 70//35 71//35
f 67//35 71//35 72//35
f 67//35 73//35 74//35
f 67//35 77//35 78//35
f 67//35 81//35 82//35
f 67//35 82//35 83//35
f 85//35 88//35 89//35
f 85//35 94//35 95//35
f 85//35 95//35 96//35
f 85//35 97//35 98//35
f 85//35 98//35 99//35
f 85//35 99//35 100//35
f 85//35 100//35 86//35
f 135//36 133//36 134//36
f 155//37 156//37 158//37
f 163//38 164//38 166//38
f 179//39 177//39 178//39
f 67//35 101//35 102//35
f 67//35 102//35 68//35
f 67//35 72//35 103//35
f 67//35 103//35 73//35
f 67//35 74//35 104//35
f 67//35 104//35 105//35
f 67//35 105//35 75//35
f 67//35 75//35 106//35
f 67//35 106//35 107//35
f 67//35 107//35 76//35
f 67//35 76//35 108//35
f 67//35 108//35 109//35
f 67//35 109//35 77//35
f 67//35 78//35 110//35
f 67//35 110//35 79//35
f 67//35 79//35 111//35
f 67//35 111//35 112//35
f 67//35 112//35 113//35
f 67//35 113//35 80//35
f 67//35 80//35 114//35
f 67//35 114//35 81//35
f 67//35 83//35 115//35
f 67//35 115//35 84//35
f 67//35 84//35 101//35
f 85//35 86//35 116//35
f 85//35 116//35 117//35
f 85//35 117//35 118//35
f 85//35 118//35 119//35
f 85//35 119//35 120//35
f 85//35 120//35 87//35
f 85//35 87//35 121//35
f 85//35 121//35 88//35
f 85//35 89//35 122//35
f 85//35 122//35 90//35
f 85//35 90//35 123//35
f 85//35 123//35 124//35
f 85//35 124//35 91//35
f 85//35 91//35 125//35
f 85//35 125//35 126//35
f 85//35 126//35 127//35
f 85//35 127//35 92//35
f 85//35 92//35 128//35
f 85//35 128//35 93//35
f 85//35 93//35 129//35
f 85//35 129//35 130//35
f 85//35 130//35 94//35
f 85//35 96//35 131//35
f 85//35 131//35 132//35
f 85//35 132//35 97//35
f 137//40 135//40 136//40
f 139//41 137//41 138//41
f 139//42 140//42 142//42
f 141//43 142//43 143//43
f 146//44 144//44 143//44
f 146//45 145//45 148//45
f 147//46 148//46 150//46
f 149//47 150//47 151//47
f 152//48 151//48 154//48
f 153//49 154//49 156//49
f 157//50 158//50 160//50
f 159//51 160//51 162//51
f 161//52 162//52 164//52
f 165//53 166//53 168//53
f 167//54 168//54 170//54
f 169//55 170//55 172//55
f 171//56 172//56 174//56
f 173//57 174//57 176//57
f 175//58 176//58 178//58
f 179//59 180//59 182//59
f 181//60 182//60 184//60
f 185//61 183//61 184//61
f 187//62 185//62 186//62
f 187//63 188//63 190//63
f 191//64 189//64 190//64
f 193//65 191//65 192//65
f 193//66 194//66 196//66
f 133//67 195//67 196//67
f 136//36 135//36 134//36
f 157//37 155//37 158//37
f 165//38 163//38 166//38
f 180//39 179//39 178//39
f 138//40 137//40 136//40
f 140//41 139//41 138//41
f 141//42 139//42 142//42
f 144//43 141//43 143//43
f 145//44 146//44 143//44
f 147//45 146//45 148//45
f 149//46 147//46 150//46
f 152//47 149//47 151//47
f 153//48 152//48 154//48
f 155//49 153//49 156//49
f 159//50 157//50 160//50
f 161//51 159//51 162//51
f 163//52 161//52 164//52
f 167//53 165//53 168//53
f 169//54 167//54 170//54
f 171//55 169//55 172//55
f 173//56 171//56 174//56
f 175//57 173//57 176//57
f 177//58 175//58 178//58
f 181//59 179//59 182//59
f 183//60 181//60 184//60
f 186//61 185//61 184//61
f 188//62 187//62 186//62
f 189//63 187//63 190//63
f 192//64 191//64 190//64
f 194//65 193//65 192//65
f 195//66 193//66 196//66
f 134//67 133//67 196//67
